<svg xmlns="http://www.w3.org/2000/svg" viewBox="0 0 512 512" role="img" aria-label="RegulaPro APV">
  <defs>
    <linearGradient id="bg" x1="70" y1="56" x2="442" y2="456" gradientUnits="userSpaceOnUse">
      <stop stop-color="#1d62f0"/>
      <stop offset="1" stop-color="#071b3a"/>
    </linearGradient>
    <filter id="shadow" x="-20%" y="-20%" width="140%" height="140%">
      <feDropShadow dx="0" dy="18" stdDeviation="18" flood-color="#071b3a" flood-opacity="0.28"/>
    </filter>
  </defs>
  <rect width="512" height="512" rx="112" fill="#f4f7fb"/>
  <rect x="54" y="54" width="404" height="404" rx="92" fill="url(#bg)" filter="url(#shadow)"/>
  <path d="M138 302h236l-28-74c-8-21-27-35-50-35h-80c-23 0-42 14-50 35l-28 74Z" fill="#fff" opacity="0.96"/>
  <path d="M169 302h174v50H169z" fill="#fff" opacity="0.96"/>
  <circle cx="191" cy="355" r="25" fill="#071b3a"/>
  <circle cx="321" cy="355" r="25" fill="#071b3a"/>
  <path d="M180 253h152l-12-31c-4-10-14-17-25-17h-78c-11 0-21 7-25 17l-12 31Z" fill="#1d62f0" opacity="0.22"/>
  <text x="256" y="166" text-anchor="middle" font-family="Inter, Arial, sans-serif" font-size="82" font-weight="900" fill="#fff">RP</text>
</svg>
